<?xml version="1.0" encoding="utf-8"?>
<!-- Generator: Adobe Illustrator 17.0.0, SVG Export Plug-In . SVG Version: 6.00 Build 0)  -->
<!DOCTYPE svg PUBLIC "-//W3C//DTD SVG 1.1//EN" "http://www.w3.org/Graphics/SVG/1.1/DTD/svg11.dtd">
<svg version="1.1" id="Layer_1" xmlns="http://www.w3.org/2000/svg" xmlns:xlink="http://www.w3.org/1999/xlink" x="0px" y="0px"
	 width="288.82px" height="97.802px" viewBox="0 0 288.82 97.802" enable-background="new 0 0 288.82 97.802" xml:space="preserve">
<g>
	<path fill="#FFFFFF" d="M55.777,33.261H30.979v-6.797h35.119v5.791L40.546,63.409v0.188h25.93v6.86H30.161V64.73l25.616-31.28
		V33.261z"/>
	<path fill="#FFFFFF" d="M82.021,60.45l-4.406,10.007h-7.93L89.07,26.464H97l19.384,43.994h-7.93L104.05,60.45H82.021z
		 M101.029,53.59l-7.993-18.126L85.042,53.59H101.029z"/>
	<path fill="#FFFFFF" d="M129.916,70.458h-7.426V26.464h11.58l13.28,27.63l13.279-27.63h11.518v43.994h-7.427V36.093l-15.356,30.525
		h-4.153l-15.295-30.525V70.458z"/>
	<path fill="#FFFFFF" d="M206.826,33.261h-24.798v-6.797h35.119v5.791l-25.553,31.154v0.188h25.931v6.86H181.21V64.73l25.616-31.28
		V33.261z"/>
	<path fill="#FFFFFF" d="M233.069,60.45l-4.406,10.007h-7.93l19.385-43.994h7.931l19.385,43.994h-7.931l-4.405-10.007H233.069z
		 M252.076,53.59l-7.993-18.126L236.09,53.59H252.076z"/>
</g>
<g>
	<rect x="1.5" y="1.5" fill="none" stroke="#FFFFFF" stroke-width="3" stroke-miterlimit="10" width="285.82" height="94.802"/>
</g>
</svg>
